<?xml version="1.0" standalone="no"?>
<!DOCTYPE svg PUBLIC "-//W3C//DTD SVG 20010904//EN"
 "http://www.w3.org/TR/2001/REC-SVG-20010904/DTD/svg10.dtd">
<svg version="1.0" xmlns="http://www.w3.org/2000/svg"
 width="145.000000pt" height="145.000000pt" viewBox="0 0 145.000000 145.000000"
 preserveAspectRatio="xMidYMid meet">
<metadata>
Created by potrace 1.11, written by Peter Selinger 2001-2013
</metadata>
<g transform="translate(0.000000,145.000000) scale(0.100000,-0.100000)"
fill="#000000" stroke="none">
<path d="M98 1412 c-47 -49 -38 -72 29 -72 37 0 44 -3 35 -12 -20 -20 -13 -46
19 -68 26 -19 39 -21 87 -16 31 4 107 9 167 12 l110 5 -40 -20 c-26 -13 -61
-21 -100 -21 -33 -1 -78 -7 -100 -15 -22 -8 -57 -15 -77 -15 -20 0 -40 -4 -43
-10 -3 -5 -32 -10 -64 -10 -32 0 -73 -3 -90 -6 l-31 -6 0 -234 0 -234 28 6
c15 3 46 12 70 20 23 8 49 14 57 14 8 0 15 8 16 18 1 11 4 9 9 -8 4 -14 8 -19
9 -12 1 6 9 12 19 12 16 0 16 -10 7 -147 -12 -157 -14 -165 -57 -229 -15 -23
-28 -51 -28 -62 0 -11 -6 -25 -14 -31 -22 -18 -54 -85 -62 -128 -3 -21 -10
-42 -14 -48 -4 -5 -10 -22 -14 -37 -3 -14 -9 -33 -12 -42 -5 -13 1 -16 30 -16
20 0 36 5 36 11 0 7 11 22 25 35 14 13 25 28 25 34 0 5 22 33 49 61 36 37 52
62 56 90 8 47 22 50 37 9 5 -17 18 -35 28 -40 10 -6 78 -10 151 -10 l132 0 -7
-32 c-3 -18 -13 -36 -21 -41 -8 -4 -15 -18 -15 -30 0 -12 -7 -35 -15 -51 -18
-35 -12 -45 17 -27 11 7 17 8 13 2 -4 -7 7 -11 30 -11 37 0 74 29 75 58 0 7
11 31 26 53 l25 40 35 -20 c29 -17 52 -21 132 -21 112 0 133 11 172 90 65 133
74 141 83 77 3 -23 13 -56 21 -72 9 -17 16 -40 16 -52 0 -12 5 -25 10 -28 6
-3 10 -19 10 -34 0 -16 3 -43 6 -60 l7 -31 123 0 124 0 0 133 c0 93 -4 137
-12 146 -10 11 -10 13 0 7 15 -9 17 55 2 70 -6 6 -13 54 -17 108 -5 79 -3 100
8 107 20 12 26 713 7 737 -10 13 -10 14 0 8 9 -5 12 10 12 63 l0 71 -657 -1
-658 0 -37 -37z m1278 -64 l19 -23 -25 20 c-14 11 -27 21 -29 22 -2 2 0 3 6 3
5 0 18 -10 29 -22z m-21 -28 c10 -11 16 -20 13 -20 -3 0 -13 9 -23 20 -10 11
-16 20 -13 20 3 0 13 -9 23 -20z m-358 -180 c102 -17 189 -27 194 -24 5 3 35
-20 67 -52 31 -32 45 -48 31 -36 -14 12 -28 22 -31 22 -9 0 -3 -49 7 -58 4 -4
5 0 0 8 -5 8 -5 12 0 8 4 -4 9 -22 11 -41 4 -48 8 -61 19 -69 6 -4 12 -54 13
-111 3 -78 0 -113 -12 -141 -13 -32 -18 -36 -31 -26 -8 6 -19 9 -25 5 -9 -5
-15 15 -11 38 0 4 -2 7 -7 7 -4 0 -7 18 -6 40 0 22 -12 77 -27 122 -20 57 -29
105 -30 154 l-1 71 -104 12 c-57 7 -104 16 -104 20 0 4 -14 6 -30 3 -21 -3
-30 0 -28 8 2 7 -3 15 -9 17 -7 3 -13 0 -13 -6 0 -13 -37 -15 -44 -2 -4 5 4 7
16 4 19 -4 20 -3 8 6 -8 6 -25 11 -36 11 -13 0 -24 8 -27 20 -7 26 -12 26 210
-10z m-597 -164 c0 -2 -8 -10 -17 -17 -16 -13 -17 -12 -4 4 13 16 21 21 21 13z
m1005 -46 c10 -11 16 -20 13 -20 -3 0 -13 9 -23 20 -10 11 -16 20 -13 20 3 0
13 -9 23 -20z m-50 -10 c10 -11 16 -20 13 -20 -3 0 -13 9 -23 20 -10 11 -16
20 -13 20 3 0 13 -9 23 -20z m50 -50 c10 -11 16 -20 13 -20 -3 0 -13 9 -23 20
-10 11 -16 20 -13 20 3 0 13 -9 23 -20z m-515 -96 c0 -2 -9 0 -20 6 -11 6 -20
13 -20 16 0 2 9 0 20 -6 11 -6 20 -13 20 -16z m-378 -46 c8 -7 23 -18 33 -24
24 -13 31 -81 12 -105 -27 -35 -90 -69 -128 -69 -54 0 -74 32 -66 102 4 28 10
54 15 57 5 3 12 16 16 29 6 19 14 22 56 22 27 0 55 -6 62 -12z m448 -33 c14
-19 14 -19 -2 -6 -10 7 -18 18 -18 24 0 6 1 8 3 6 1 -2 9 -13 17 -24z m-148
-31 c46 -8 55 -31 32 -82 -21 -50 -69 -77 -107 -63 -25 10 -27 15 -27 65 0 89
8 95 102 80z m618 -8 c0 -2 -8 -10 -17 -17 -16 -13 -17 -12 -4 4 13 16 21 21
21 13z m-351 -78 c13 -36 1 -36 -20 0 -13 22 -13 29 -3 29 7 0 18 -13 23 -29z
m-728 -45 c13 -16 12 -17 -3 -4 -17 13 -22 21 -14 21 2 0 10 -8 17 -17z m1046
-125 c-3 -8 -6 -5 -6 6 -1 11 2 17 5 13 3 -3 4 -12 1 -19z m-1137 -62 c0 -2
-8 -10 -17 -17 -16 -13 -17 -12 -4 4 13 16 21 21 21 13z m811 -39 c-10 -9 -11
-8 -5 6 3 10 9 15 12 12 3 -3 0 -11 -7 -18z m-921 -51 c0 -2 -8 -10 -17 -17
-16 -13 -17 -12 -4 4 13 16 21 21 21 13z m-71 -188 c-9 -16 -14 -19 -17 -9 -2
7 2 17 9 22 20 13 21 11 8 -13z m541 -22 c0 -2 -8 -10 -17 -17 -16 -13 -17
-12 -4 4 13 16 21 21 21 13z"/>
<path d="M1093 1083 c9 -2 25 -2 35 0 9 3 1 5 -18 5 -19 0 -27 -2 -17 -5z"/>
<path d="M437 683 c-10 -12 -14 -27 -10 -41 4 -18 12 -22 45 -22 l39 0 -3 38
c-3 31 -7 37 -29 40 -15 2 -32 -5 -42 -15z"/>
<path d="M754 616 c-11 -28 1 -61 22 -64 17 -2 23 3 27 25 6 30 -7 53 -30 53
-7 0 -16 -6 -19 -14z"/>
</g>
</svg>
